<svg width="40" height="40" viewBox="0 0 40 40" fill="none" xmlns="http://www.w3.org/2000/svg">
<path d="M19.4766 16.875C17.8828 14.043 16.168 11.6641 15.9141 11.3164C13.2266 12.5859 11.2148 15.0625 10.5938 18.043C11.0234 18.0508 14.9844 18.0703 19.4766 16.875ZM22.0742 17.7266C22.2969 18.1836 22.5117 18.6484 22.7109 19.1172C22.7812 19.2812 22.8516 19.4453 22.918 19.6133C26.1133 19.2109 29.293 19.8555 29.6094 19.9219C29.5898 17.6523 28.7773 15.5703 27.4414 13.9336C27.2344 14.2109 25.625 16.2773 22.0742 17.7266ZM34.375 4.375H5.625C4.93359 4.375 4.375 4.93359 4.375 5.625V34.375C4.375 35.0664 4.93359 35.625 5.625 35.625H34.375C35.0664 35.625 35.625 35.0664 35.625 34.375V5.625C35.625 4.93359 35.0664 4.375 34.375 4.375ZM20 31.25C13.7969 31.25 8.75 26.2031 8.75 20C8.75 13.7969 13.7969 8.75 20 8.75C26.2031 8.75 31.25 13.7969 31.25 20C31.25 26.2031 26.2031 31.25 20 31.25ZM23.5039 21.1289C24.7617 24.582 25.2734 27.3945 25.3711 27.9805C27.5273 26.5234 29.0625 24.2148 29.4883 21.5391C29.1602 21.4375 26.5156 20.6484 23.5039 21.1289ZM20.6719 20.0977C20.7969 20.0586 20.9219 20.0195 21.0508 19.9844C20.8086 19.4375 20.5469 18.8906 20.2734 18.3555C15.4766 19.793 10.8164 19.7305 10.3984 19.7227C10.3945 19.8203 10.3945 19.918 10.3945 20.0156C10.3945 22.4844 11.3281 24.7383 12.8633 26.4414C13.0781 26.0664 15.7148 21.6992 20.6719 20.0977ZM26.3711 12.8242C25.2144 11.7951 23.8256 11.0617 22.3234 10.6868C20.8213 10.312 19.2507 10.3069 17.7461 10.6719C18.0117 11.0273 19.7578 13.4023 21.332 16.2969C24.75 15.0156 26.1953 13.0703 26.3711 12.8242ZM21.6406 21.5938C16.2227 23.4805 14.2734 27.2422 14.1016 27.5938C15.7305 28.8633 17.7773 29.6211 20 29.6211C21.332 29.6211 22.6016 29.3516 23.7539 28.8594C23.6094 28.0156 23.0547 25.0781 21.7031 21.5703L21.6406 21.5938Z" fill="#2EA689"/>
</svg>
